<?xml version="1.0" encoding="UTF-8" standalone="no"?>
<!DOCTYPE svg PUBLIC "-//W3C//DTD SVG 1.1//EN" "http://www.w3.org/Graphics/SVG/1.1/DTD/svg11.dtd">
<svg width="100%" height="100%" viewBox="0 0 128 128" version="1.1" xmlns="http://www.w3.org/2000/svg" xmlns:xlink="http://www.w3.org/1999/xlink" xml:space="preserve" xmlns:serif="http://www.serif.com/" style="fill-rule:evenodd;clip-rule:evenodd;stroke-linejoin:round;stroke-miterlimit:2;">
    <g transform="matrix(1,-2.50828e-20,6.55269e-20,0.999339,-0.0209337,0.0584082)">
        <path d="M64.021,-0.028L119.465,31.993L119.465,96.036L64.021,128.057L8.576,96.036L8.576,31.993L64.021,-0.028Z" style="fill:rgb(10,171,255);"/>
    </g>
    <g transform="matrix(5.30024e-17,0.86524,-0.864669,5.30024e-17,119.351,8.63703)">
        <path d="M64.021,-0.028L119.465,31.993L119.465,96.036L64.021,128.057L8.576,96.036L8.576,31.993L64.021,-0.028Z" style="fill:rgb(0,108,164);"/>
    </g>
    <g transform="matrix(0.748405,-1.87721e-20,4.90407e-20,0.747911,16.0864,16.1535)">
        <path d="M64.021,-0.028L119.465,31.993L119.465,96.036L64.021,128.057L8.576,96.036L8.576,31.993L64.021,-0.028Z" style="fill:rgb(0,53,81);"/>
    </g>
    <g transform="matrix(1,0,0,1,-10.8324,31.8951)">
        <g transform="matrix(66.6667,0,0,66.6667,33.1439,55.6568)">
            <path d="M0.575,-0.357C0.575,-0.224 0.544,-0.131 0.482,-0.079C0.42,-0.026 0.341,-0 0.247,-0L0.073,-0L0.073,-0.708L0.235,-0.708C0.3,-0.708 0.357,-0.698 0.407,-0.679C0.457,-0.66 0.497,-0.625 0.528,-0.573C0.56,-0.522 0.575,-0.45 0.575,-0.357ZM0.45,-0.357C0.45,-0.428 0.441,-0.482 0.423,-0.52C0.405,-0.558 0.382,-0.584 0.355,-0.597C0.327,-0.61 0.294,-0.616 0.257,-0.616L0.192,-0.616L0.192,-0.09L0.258,-0.09C0.386,-0.09 0.45,-0.179 0.45,-0.357Z" style="fill:white;fill-rule:nonzero;"/>
        </g>
        <g transform="matrix(66.6667,0,0,66.6667,74.1696,55.6568)">
            <path d="M0.563,-0.2C0.563,-0.158 0.552,-0.121 0.531,-0.088C0.509,-0.056 0.478,-0.031 0.437,-0.013C0.397,0.005 0.349,0.014 0.293,0.014C0.237,0.014 0.188,0.006 0.144,-0.011C0.101,-0.028 0.063,-0.051 0.032,-0.081L0.097,-0.154C0.123,-0.13 0.152,-0.112 0.184,-0.099C0.216,-0.086 0.252,-0.08 0.292,-0.08C0.32,-0.08 0.344,-0.084 0.366,-0.093C0.388,-0.102 0.406,-0.115 0.419,-0.132C0.432,-0.149 0.439,-0.17 0.439,-0.194C0.439,-0.216 0.435,-0.233 0.426,-0.248C0.418,-0.262 0.403,-0.275 0.382,-0.286C0.361,-0.297 0.332,-0.309 0.294,-0.32C0.242,-0.336 0.199,-0.353 0.166,-0.371C0.133,-0.39 0.108,-0.412 0.091,-0.438C0.074,-0.464 0.066,-0.495 0.066,-0.531C0.066,-0.568 0.076,-0.602 0.097,-0.631C0.118,-0.66 0.147,-0.682 0.184,-0.698C0.221,-0.714 0.263,-0.722 0.309,-0.722C0.358,-0.722 0.402,-0.715 0.441,-0.701C0.48,-0.686 0.515,-0.665 0.546,-0.637L0.483,-0.566C0.459,-0.587 0.432,-0.603 0.404,-0.613C0.376,-0.624 0.346,-0.629 0.316,-0.629C0.278,-0.629 0.247,-0.621 0.223,-0.605C0.2,-0.589 0.188,-0.567 0.188,-0.537C0.188,-0.519 0.193,-0.503 0.203,-0.49C0.213,-0.478 0.23,-0.466 0.253,-0.455C0.276,-0.444 0.31,-0.432 0.353,-0.419C0.398,-0.406 0.435,-0.391 0.465,-0.374C0.495,-0.357 0.519,-0.334 0.536,-0.306C0.554,-0.278 0.563,-0.242 0.563,-0.2Z" style="fill:white;fill-rule:nonzero;"/>
        </g>
    </g>
</svg>
