<?xml version="1.0" standalone="no"?>
<!DOCTYPE svg PUBLIC "-//W3C//DTD SVG 20010904//EN"
 "http://www.w3.org/TR/2001/REC-SVG-20010904/DTD/svg10.dtd">
<svg version="1.0" xmlns="http://www.w3.org/2000/svg"
 width="700.000000pt" height="700.000000pt" viewBox="0 0 700.000000 700.000000"
 preserveAspectRatio="xMidYMid meet">
<metadata>
Created by potrace 1.11, written by Peter Selinger 2001-2013
</metadata>
<g transform="translate(0.000000,700.000000) scale(0.100000,-0.100000)"
fill="#000000" stroke="none">
<path d="M3025 6719 c-820 -473 -938 -541 -1046 -603 -58 -34 -421 -243 -807
-466 l-702 -405 0 -1746 0 -1746 1512 -873 c1260 -727 1516 -871 1534 -864 12
5 695 398 1518 873 l1496 864 0 1746 0 1746 -702 405 c-386 223 -824 475 -972
561 -149 85 -509 293 -801 462 -291 168 -537 308 -545 311 -9 4 -207 -104
-485 -265z m1810 -1894 c226 -37 434 -129 580 -257 l39 -35 -113 -127 c-62
-69 -114 -126 -117 -126 -2 0 -27 18 -56 40 -73 55 -187 113 -288 145 -112 36
-337 47 -440 21 -198 -50 -301 -172 -288 -341 14 -173 125 -249 579 -399 370
-122 518 -202 629 -339 111 -137 152 -260 152 -457 0 -145 -20 -236 -75 -347
-150 -296 -519 -461 -982 -439 -291 13 -511 81 -720 222 -44 30 -97 69 -117
87 l-37 34 100 114 c56 63 109 122 119 133 18 18 19 18 67 -22 129 -107 292
-182 463 -213 98 -17 303 -15 380 5 148 37 267 125 318 233 22 47 27 75 30
153 9 234 -91 326 -497 460 -337 112 -476 175 -606 272 -169 128 -246 283
-247 498 -1 192 52 322 187 455 117 117 254 185 450 225 115 23 362 26 490 5z
m-2416 -59 c222 -44 391 -112 509 -207 120 -96 248 -284 304 -445 109 -317
112 -857 6 -1194 -38 -120 -105 -250 -168 -324 -177 -207 -464 -344 -789 -376
-57 -5 -258 -10 -447 -10 l-344 0 0 1291 0 1291 423 -5 c338 -4 439 -8 506
-21z"/>
<path d="M1920 3501 l0 -961 158 0 c200 1 292 17 400 70 271 134 397 464 379
990 -10 303 -56 472 -173 637 -54 76 -112 124 -190 159 -95 42 -175 55 -381
61 l-193 6 0 -962z"/>
</g>
</svg>
